<svg xmlns="http://www.w3.org/2000/svg" viewBox="0 0 188.23 60"><defs><style>.cls-1{fill:none;}.cls-2{fill:#1c0e3f;}.cls-3{isolation:isolate;}</style></defs><g id="Livello_2" data-name="Livello 2"><g id="Livello_1-2" data-name="Livello 1"><g id="Tracciato_524" data-name="Tracciato 524"><path class="cls-1" d="M188.23,30l-5.92,18.54L166.81,60H21.41L5.92,48.54,0,30,5.92,11.45,21.41,0h145.4l15.5,11.45Z"/><path class="cls-2" d="M22.4,3,8.48,13.29,3.15,30,8.48,46.71,22.4,57H165.82l13.92-10.29L185.08,30l-5.34-16.71L165.82,3H22.4m-1-3h145.4l15.5,11.46L188.23,30l-5.92,18.54L166.81,60H21.41L5.92,48.54,0,30,5.92,11.46Z"/></g><g id="of_course" data-name="of course" class="cls-3"><g class="cls-3"><path class="cls-2" d="M66.54,39.38a7.16,7.16,0,0,1-5.29-2.13,7.28,7.28,0,0,1-2.12-5.33,7.25,7.25,0,0,1,2.12-5.33,7.17,7.17,0,0,1,5.32-2.14A7.33,7.33,0,0,1,71.14,26a6.28,6.28,0,0,1,2.45,4h-3a3.62,3.62,0,0,0-1.49-2.06,4.41,4.41,0,0,0-2.49-.73,4.23,4.23,0,0,0-3.23,1.33,4.77,4.77,0,0,0-1.24,3.41,4.76,4.76,0,0,0,1.24,3.4,4.52,4.52,0,0,0,5.71.57,3.86,3.86,0,0,0,1.5-2h3a6.37,6.37,0,0,1-2.47,4.06A7.47,7.47,0,0,1,66.54,39.38Z"/><path class="cls-2" d="M82.69,24.45a6.77,6.77,0,0,1,5.42,2.36,8,8,0,0,1,1.81,5.91H78.29a4.25,4.25,0,0,0,4.48,4.08,4.86,4.86,0,0,0,2.31-.54,3.42,3.42,0,0,0,1.51-1.59h3A6.65,6.65,0,0,1,87,38.18a7.62,7.62,0,0,1-4.24,1.2,7.19,7.19,0,0,1-7.44-7.44,7.4,7.4,0,0,1,2.08-5.37A7.14,7.14,0,0,1,82.69,24.45Zm0,2.55a4.1,4.1,0,0,0-2.74.93,4.5,4.5,0,0,0-1.5,2.4h8.32a4.31,4.31,0,0,0-1.42-2.42A4,4,0,0,0,82.69,27Z"/><path class="cls-2" d="M100,24.45a3.79,3.79,0,0,1,.86.08v3c-.35,0-.64-.05-.88-.05a4.73,4.73,0,0,0-3.44,1.26,5.06,5.06,0,0,0-1.3,3.78v6.56H92.26V24.77h2.93V27.6A4.81,4.81,0,0,1,100,24.45Z"/><path class="cls-2" d="M113.29,36l.52,2.39a7.83,7.83,0,0,1-4.08,1A5.07,5.07,0,0,1,106,37.9a5.93,5.93,0,0,1-1.46-4.32V27.52h-2.65V24.77h2.65V21.52l2.94-.65v3.9h5.88v2.75h-5.88v5.9q0,3.22,2.81,3.23A10.45,10.45,0,0,0,113.29,36Z"/><path class="cls-2" d="M122.23,24.45a7.31,7.31,0,0,1,7.41,7.47,7.25,7.25,0,0,1-2.13,5.33,7.43,7.43,0,0,1-12.69-5.33,7.34,7.34,0,0,1,7.41-7.47Zm3.16,4.12a4.47,4.47,0,0,0-6.32,0,4.62,4.62,0,0,0-1.28,3.35,4.59,4.59,0,0,0,1.27,3.35,4.53,4.53,0,0,0,6.35,0,4.64,4.64,0,0,0,1.27-3.35A4.58,4.58,0,0,0,125.39,28.57Z"/></g></g></g></g></svg>