<svg xmlns="http://www.w3.org/2000/svg" width="144" height="36" viewBox="0 0 144 36">
  <g id="Tracciato_525" data-name="Tracciato 525" transform="translate(-8499.456 -1488.718)" fill="none" stroke-miterlimit="10">
    <path d="M8643.456,1506.717l-3.553,11.126-9.3,6.875H8512.3l-9.3-6.875-3.551-11.126,3.551-11.126,9.3-6.873h118.3l9.3,6.873Z" stroke="none"/>
    <path d="M 8512.962890625 1490.717895507812 L 8504.7158203125 1496.814453125 L 8501.5556640625 1506.716552734375 L 8504.7158203125 1516.61865234375 L 8512.962890625 1522.717895507812 L 8629.947265625 1522.717895507812 L 8638.1943359375 1516.618530273438 L 8641.3564453125 1506.716552734375 L 8638.1943359375 1496.814575195312 L 8629.947265625 1490.717895507812 L 8512.962890625 1490.717895507812 M 8512.3037109375 1488.717895507812 L 8630.6064453125 1488.717895507812 L 8639.9033203125 1495.590454101562 L 8643.4560546875 1506.716552734375 L 8639.9033203125 1517.842407226562 L 8630.6064453125 1524.717895507812 L 8512.3037109375 1524.717895507812 L 8503.0068359375 1517.842407226562 L 8499.4560546875 1506.716552734375 L 8503.0068359375 1495.590454101562 L 8512.3037109375 1488.717895507812 Z" stroke="none" fill="#1c0e3f"/>
  </g>
</svg>
