<svg xmlns="http://www.w3.org/2000/svg" viewBox="0 0 144.51 25"><defs><style>.cls-1{fill:#1c0e3f;}</style></defs><g id="Livello_2" data-name="Livello 2"><g id="Livello_1-2" data-name="Livello 1"><g id="Raggruppa_56" data-name="Raggruppa 56"><path id="Tracciato_41" data-name="Tracciato 41" class="cls-1" d="M3.06,12.13H0V8.73H3.06V0H13.12V3.41H6.68V8.72h6.44v3.41H6.68V24.6H3.06Z"/><path id="Tracciato_42" data-name="Tracciato 42" class="cls-1" d="M15.08,24.6V7H18.7V21.15h8.22V7h3.62V24.6Z"/><path id="Tracciato_43" data-name="Tracciato 43" class="cls-1" d="M42.06,6.65a9,9,0,0,1,9.11,8.9v.27A9,9,0,0,1,42.4,25h-.34A9,9,0,0,1,33,16.13v-.31a9,9,0,0,1,8.82-9.17ZM36.6,15.82a5.44,5.44,0,0,0,5.16,5.71h.3a5.42,5.42,0,0,0,5.46-5.38h0c0-.11,0-.22,0-.33a5.43,5.43,0,0,0-5.15-5.71h-.31a5.44,5.44,0,0,0-5.46,5.41c0,.1,0,.21,0,.31Z"/><path id="Tracciato_44" data-name="Tracciato 44" class="cls-1" d="M57.21,10.49V24.6H53.59V7h10v3.46Z"/><path id="Tracciato_45" data-name="Tracciato 45" class="cls-1" d="M65.32,24.6V7h3.62V24.6Z"/><path id="Tracciato_46" data-name="Tracciato 46" class="cls-1" d="M85.75,7h3.62V24.6H85.75V21.66A6.82,6.82,0,0,1,79.62,25a7.47,7.47,0,0,1-5.83-2.57,9.55,9.55,0,0,1-2.29-6.6,9.52,9.52,0,0,1,2.3-6.58,7.47,7.47,0,0,1,5.79-2.59A6.86,6.86,0,0,1,85.75,10ZM80.38,21.54a5.16,5.16,0,0,0,3.87-1.6,5.73,5.73,0,0,0,1.54-4.12,5.73,5.73,0,0,0-1.54-4.11,5.1,5.1,0,0,0-3.87-1.61,4.86,4.86,0,0,0-3.77,1.6,5.88,5.88,0,0,0-1.47,4.12,5.88,5.88,0,0,0,1.47,4.12,4.9,4.9,0,0,0,3.77,1.6Z"/><path id="Tracciato_47" data-name="Tracciato 47" class="cls-1" d="M100.07,25a9.93,9.93,0,0,1-5.8-1.6A6.6,6.6,0,0,1,91.44,19h3.68a3.46,3.46,0,0,0,1.59,2.16,7,7,0,0,0,3.42.69,6.08,6.08,0,0,0,2.76-.53,1.62,1.62,0,0,0,1-1.49,1.3,1.3,0,0,0-.5-1.05,3.19,3.19,0,0,0-1.15-.61c-.44-.13-1.14-.31-2.12-.54l-.84-.19a18.39,18.39,0,0,1-5.46-2,3.55,3.55,0,0,1-1.54-3.15,4.81,4.81,0,0,1,2-4.1,9,9,0,0,1,5.39-1.49,8.61,8.61,0,0,1,5.22,1.42A6.23,6.23,0,0,1,107.38,12h-3.65Q103,9.85,99.64,9.84a5.76,5.76,0,0,0-2.71.55,1.63,1.63,0,0,0-1,1.47,1.2,1.2,0,0,0,.8,1.16,21.77,21.77,0,0,0,3.35,1c1.11.25,2,.47,2.64.65a18.12,18.12,0,0,1,2,.72,5.68,5.68,0,0,1,1.6,1,4.15,4.15,0,0,1,.9,1.26,4.35,4.35,0,0,1,.35,1.78,4.75,4.75,0,0,1-2.12,4.16A9.37,9.37,0,0,1,100.07,25Z"/><path id="Tracciato_48" data-name="Tracciato 48" class="cls-1" d="M117.46,25a9.93,9.93,0,0,1-5.8-1.6A6.56,6.56,0,0,1,108.83,19h3.67a3.47,3.47,0,0,0,1.6,2.16,7,7,0,0,0,3.42.69,6.08,6.08,0,0,0,2.76-.53,1.62,1.62,0,0,0,1-1.49,1.3,1.3,0,0,0-.5-1.05,3,3,0,0,0-1.15-.61c-.43-.13-1.14-.31-2.12-.54l-.84-.19a18.39,18.39,0,0,1-5.46-2,3.54,3.54,0,0,1-1.53-3.15,4.76,4.76,0,0,1,2-4.1,8.91,8.91,0,0,1,5.38-1.49,8.66,8.66,0,0,1,5.23,1.42A6.26,6.26,0,0,1,124.77,12h-3.64c-.51-1.43-1.88-2.15-4.09-2.15a5.8,5.8,0,0,0-2.72.55,1.63,1.63,0,0,0-1,1.47,1.2,1.2,0,0,0,.8,1.16,21.57,21.57,0,0,0,3.36,1c1.11.25,2,.47,2.63.65a18.12,18.12,0,0,1,2,.72,5.54,5.54,0,0,1,1.6,1,4.15,4.15,0,0,1,.9,1.26,4,4,0,0,1,.35,1.78,4.71,4.71,0,0,1-2.12,4.16A9.37,9.37,0,0,1,117.46,25Z"/><path id="Tracciato_49" data-name="Tracciato 49" class="cls-1" d="M135.58,6.65a8.31,8.31,0,0,1,6.66,2.89,9.79,9.79,0,0,1,2.22,7.27H130.18a5.41,5.41,0,0,0,1.72,3.69,5.5,5.5,0,0,0,3.78,1.32,5.86,5.86,0,0,0,2.84-.67,4.16,4.16,0,0,0,1.85-1.95h3.74a8.13,8.13,0,0,1-3.26,4.32A9.39,9.39,0,0,1,135.64,25a8.83,8.83,0,0,1-9.14-9.14,9.05,9.05,0,0,1,2.56-6.6A8.76,8.76,0,0,1,135.58,6.65Zm0,3.13a5.07,5.07,0,0,0-3.37,1.13,5.6,5.6,0,0,0-1.84,3H140.6a5.3,5.3,0,0,0-1.74-3,4.92,4.92,0,0,0-3.28-1.12Z"/><rect id="Rettangolo_27" data-name="Rettangolo 27" class="cls-1" x="68.94" y="1.46" width="3.87" height="3.87"/></g></g></g></svg>