<svg xmlns="http://www.w3.org/2000/svg" viewBox="0 0 115.61 20"><defs><style>.cls-1,.cls-3{fill:none;}.cls-2{fill:#fff;}.cls-3{stroke:#fff;stroke-miterlimit:10;stroke-width:3.5px;}</style></defs><g id="Livello_2" data-name="Livello 2"><g id="Livello_1-2" data-name="Livello 1"><g id="Logo_Desktop" data-name="Logo Desktop"><g id="Tracciato_41" data-name="Tracciato 41"><path class="cls-1" d="M2.45,9.71H0V7H2.45V0h8V2.73H5.35V7h5.14V9.71H5.35v10H2.45Z"/><path class="cls-2" d="M2.45,0h8V2.73H5.35V7h5.14V9.71H5.35v10H2.45v-10H0V7H2.45Z"/></g><g id="Tracciato_42" data-name="Tracciato 42"><path class="cls-1" d="M12.06,19.68v-14H15V16.92h6.58V5.63h2.89V19.69Z"/><path class="cls-2" d="M24.43,19.68H12.06v-14H15V16.92h6.58V5.63h2.89Z"/></g><g id="Tracciato_43" data-name="Tracciato 43"><path class="cls-1" d="M33.65,5.32a7.21,7.21,0,0,1,7.28,7.12h0v.22a7.16,7.16,0,0,1-7,7.32h-.27a7.18,7.18,0,0,1-7.29-7.08v-.25a7.2,7.2,0,0,1,7.06-7.33Zm-4.37,7.34a4.36,4.36,0,0,0,4.12,4.57h.24A4.33,4.33,0,0,0,38,12.92h0v-.26a4.35,4.35,0,0,0-4.12-4.57h-.25a4.35,4.35,0,0,0-4.37,4.32,2.35,2.35,0,0,0,0,.26Z"/><path class="cls-2" d="M33.42,5.32h.31a7.2,7.2,0,0,1,7.2,7.12v.22a7.16,7.16,0,0,1-7,7.32h-.38a7.18,7.18,0,0,1-7.18-7.08v-.25A7.21,7.21,0,0,1,33.42,5.32Zm.26,11.91A4.33,4.33,0,0,0,38,12.92h0v-.26a4.35,4.35,0,0,0-4.12-4.57h-.27a4.36,4.36,0,0,0-4.35,4.33,2.18,2.18,0,0,0,0,.25h0a4.36,4.36,0,0,0,4.12,4.57h.28Z"/></g><g id="Tracciato_44" data-name="Tracciato 44"><path class="cls-1" d="M45.77,8.39V19.68h-2.9v-14h8V8.39Z"/><path class="cls-2" d="M42.87,5.63h8V8.39H45.77V19.68h-2.9Z"/></g><g id="Tracciato_45" data-name="Tracciato 45"><path class="cls-1" d="M52.25,19.68v-14h2.9V19.69Z"/><path class="cls-2" d="M55.15,19.68h-2.9v-14h2.9Z"/></g><g id="Tracciato_46" data-name="Tracciato 46"><path class="cls-1" d="M68.6,5.63h2.89V19.69H68.6V17.33A5.46,5.46,0,0,1,63.69,20a5.94,5.94,0,0,1-4.66-2,7.63,7.63,0,0,1-1.83-5.28A7.59,7.59,0,0,1,59,7.4a5.9,5.9,0,0,1,4.63-2.07A5.5,5.5,0,0,1,68.6,8Zm-4.29,11.6A4.1,4.1,0,0,0,67.4,16a4.58,4.58,0,0,0,1.23-3.3A4.59,4.59,0,0,0,67.4,9.37a4.12,4.12,0,0,0-3.1-1.29,3.88,3.88,0,0,0-3,1.28,4.63,4.63,0,0,0-1.18,3.29A4.65,4.65,0,0,0,61.29,16a3.88,3.88,0,0,0,3,1.28Z"/><path class="cls-2" d="M63.86,5.32A5.51,5.51,0,0,1,68.6,8V5.63h2.89V19.68H68.6V17.33A5.45,5.45,0,0,1,63.91,20h-.38A6,6,0,0,1,59,17.93a7.64,7.64,0,0,1-1.83-5.28A7.62,7.62,0,0,1,59,7.39a6,6,0,0,1,4.5-2.07h.32Zm.44,2.76h-.11a3.89,3.89,0,0,0-2.9,1.28,4.63,4.63,0,0,0-1.18,3.29A4.65,4.65,0,0,0,61.29,16a3.91,3.91,0,0,0,2.9,1.28h.12A4.1,4.1,0,0,0,67.4,16a4.58,4.58,0,0,0,1.23-3.3A4.59,4.59,0,0,0,67.4,9.37a4.05,4.05,0,0,0-3-1.29Z"/></g><g id="Tracciato_47" data-name="Tracciato 47"><path class="cls-1" d="M80.05,20a7.9,7.9,0,0,1-4.63-1.28,5.24,5.24,0,0,1-2.27-3.55h2.94a2.78,2.78,0,0,0,1.28,1.73,5.6,5.6,0,0,0,2.73.55A4.8,4.8,0,0,0,82.31,17a1.28,1.28,0,0,0,.81-1.18,1.05,1.05,0,0,0-.4-.85,2.46,2.46,0,0,0-.92-.48c-.35-.1-.92-.25-1.7-.44l-.67-.15a14.81,14.81,0,0,1-4.37-1.6,2.86,2.86,0,0,1-1.23-2.52,3.82,3.82,0,0,1,1.63-3.28,7.07,7.07,0,0,1,4.3-1.19,6.87,6.87,0,0,1,4.18,1.14,5,5,0,0,1,2,3.13H83c-.41-1.14-1.5-1.71-3.28-1.71a4.52,4.52,0,0,0-2.17.43,1.3,1.3,0,0,0-.79,1.18,1,1,0,0,0,.64.93,17.86,17.86,0,0,0,2.68.78c.89.2,1.59.38,2.11.52a13.14,13.14,0,0,1,1.63.58,4.41,4.41,0,0,1,1.28.77,3.32,3.32,0,0,1,.72,1,3.43,3.43,0,0,1,.28,1.42,3.8,3.8,0,0,1-1.7,3.33A7.49,7.49,0,0,1,80.05,20Z"/><path class="cls-2" d="M80.35,20h-.3a7.9,7.9,0,0,1-4.63-1.28,5.24,5.24,0,0,1-2.27-3.55h2.94a2.78,2.78,0,0,0,1.28,1.73,5.6,5.6,0,0,0,2.73.55A4.92,4.92,0,0,0,82.31,17a1.31,1.31,0,0,0,.81-1.19,1.08,1.08,0,0,0-.4-.85,2.46,2.46,0,0,0-.92-.48c-.35-.1-.92-.25-1.7-.44l-.67-.15a14.81,14.81,0,0,1-4.37-1.6,2.85,2.85,0,0,1-1.23-2.52,3.82,3.82,0,0,1,1.63-3.28,7.14,7.14,0,0,1,4.3-1.19,6.87,6.87,0,0,1,4.18,1.14,5,5,0,0,1,2,3.13H83c-.41-1.14-1.5-1.71-3.28-1.71a4.52,4.52,0,0,0-2.17.43,1.3,1.3,0,0,0-.79,1.18,1,1,0,0,0,.64.93,17.86,17.86,0,0,0,2.68.78c.89.2,1.59.38,2.11.52a13.14,13.14,0,0,1,1.63.58,4.61,4.61,0,0,1,1.28.76,3.45,3.45,0,0,1,.72,1,3.49,3.49,0,0,1,.28,1.42,3.81,3.81,0,0,1-1.7,3.34A7.6,7.6,0,0,1,80.35,20Z"/></g><g id="Tracciato_48" data-name="Tracciato 48"><path class="cls-1" d="M94,20a7.9,7.9,0,0,1-4.63-1.28,5.24,5.24,0,0,1-2.27-3.55H90a2.78,2.78,0,0,0,1.28,1.73,5.6,5.6,0,0,0,2.73.55A4.8,4.8,0,0,0,96.22,17,1.28,1.28,0,0,0,97,15.83a1.08,1.08,0,0,0-.4-.85,2.46,2.46,0,0,0-.92-.48c-.35-.1-.92-.25-1.7-.44l-.66-.15A14.87,14.87,0,0,1,89,12.31a2.82,2.82,0,0,1-1.22-2.52,3.83,3.83,0,0,1,1.62-3.28,7.08,7.08,0,0,1,4.31-1.19,6.89,6.89,0,0,1,4.18,1.14,4.92,4.92,0,0,1,2,3.13H96.9q-.62-1.71-3.27-1.71a4.56,4.56,0,0,0-2.18.43,1.3,1.3,0,0,0-.79,1.18,1,1,0,0,0,.64.93A17.65,17.65,0,0,0,94,11.2c.88.2,1.59.38,2.1.52a13.14,13.14,0,0,1,1.63.58,4.28,4.28,0,0,1,1.28.77,3.32,3.32,0,0,1,.72,1A3.28,3.28,0,0,1,100,15.5a3.8,3.8,0,0,1-1.7,3.33A7.47,7.47,0,0,1,94,20Z"/><path class="cls-2" d="M94.27,20H94a7.9,7.9,0,0,1-4.63-1.28,5.24,5.24,0,0,1-2.27-3.55H90a2.78,2.78,0,0,0,1.28,1.73,5.6,5.6,0,0,0,2.73.55A5,5,0,0,0,96.23,17a1.31,1.31,0,0,0,.8-1.19,1.05,1.05,0,0,0-.4-.85,2.46,2.46,0,0,0-.92-.48c-.35-.1-.91-.25-1.7-.44l-.66-.15A14.87,14.87,0,0,1,89,12.31a2.82,2.82,0,0,1-1.22-2.52,3.83,3.83,0,0,1,1.62-3.28,7.15,7.15,0,0,1,4.31-1.19,6.89,6.89,0,0,1,4.18,1.14,5,5,0,0,1,2,3.13H96.9q-.62-1.71-3.27-1.71a4.56,4.56,0,0,0-2.18.43,1.3,1.3,0,0,0-.79,1.18,1,1,0,0,0,.64.93A17.65,17.65,0,0,0,94,11.2c.88.2,1.59.38,2.11.52a13.6,13.6,0,0,1,1.62.58,4.47,4.47,0,0,1,1.28.76,3.58,3.58,0,0,1,.72,1,3.34,3.34,0,0,1,.28,1.42,3.81,3.81,0,0,1-1.7,3.34A7.57,7.57,0,0,1,94.27,20Z"/></g><g id="Tracciato_49" data-name="Tracciato 49"><path class="cls-1" d="M108.46,5.32a6.66,6.66,0,0,1,5.33,2.31,7.87,7.87,0,0,1,1.78,5.82H104.14a4.34,4.34,0,0,0,1.38,2.95,4.4,4.4,0,0,0,3,1.06,4.9,4.9,0,0,0,2.28-.53,3.44,3.44,0,0,0,1.48-1.56h3a6.51,6.51,0,0,1-2.61,3.45A7.47,7.47,0,0,1,108.52,20a7.05,7.05,0,0,1-7.32-7.31,7.27,7.27,0,0,1,2-5.28A7,7,0,0,1,108.46,5.32Zm0,2.5a4.07,4.07,0,0,0-2.7.91,4.54,4.54,0,0,0-1.47,2.37h8.19a4.22,4.22,0,0,0-1.4-2.38A3.91,3.91,0,0,0,108.46,7.82Z"/><path class="cls-2" d="M108.74,5.31a6.68,6.68,0,0,1,5.05,2.32,7.88,7.88,0,0,1,1.78,5.82H104.14a4.34,4.34,0,0,0,1.38,2.95,4.38,4.38,0,0,0,3,1.06,4.72,4.72,0,0,0,2.27-.54,3.32,3.32,0,0,0,1.49-1.56h3a6.44,6.44,0,0,1-2.61,3.45A7.41,7.41,0,0,1,108.51,20h-.24a7,7,0,0,1-7.07-7.31,7.27,7.27,0,0,1,2-5.28,7,7,0,0,1,5-2.08h.51Zm-.28,2.51a4.07,4.07,0,0,0-2.7.91,4.48,4.48,0,0,0-1.47,2.37h8.19a4.22,4.22,0,0,0-1.4-2.38A3.91,3.91,0,0,0,108.46,7.82Z"/></g><g id="Rettangolo_27" data-name="Rettangolo 27"><rect class="cls-1" x="55.15" y="1.17" width="3.09" height="3.09"/><rect class="cls-3" x="56.32" y="2.34" width="0.76" height="0.76"/></g></g></g></g></svg>