<svg xmlns="http://www.w3.org/2000/svg" viewBox="0 0 173.42 30"><defs><style>.cls-1,.cls-3{fill:none;}.cls-2{fill:#fff;}.cls-3{stroke:#fff;stroke-miterlimit:10;stroke-width:3.5px;}</style></defs><g id="Livello_2" data-name="Livello 2"><g id="Livello_1-2" data-name="Livello 1"><g id="Logo_Desktop" data-name="Logo Desktop"><g id="Tracciato_41" data-name="Tracciato 41"><path class="cls-1" d="M3.67,14.56H0V10.47H3.67V0H15.74V4.09H8v6.38h7.72v4.09H8v15H3.67Z"/><path class="cls-2" d="M3.67,0H15.74V4.09H8v6.38h7.72v4.09H8v15H3.67v-15H0V10.47H3.67Z"/></g><g id="Tracciato_42" data-name="Tracciato 42"><path class="cls-1" d="M18.09,29.53V8.44h4.35V25.38h9.87V8.44h4.34V29.53Z"/><path class="cls-2" d="M36.65,29.53H18.09V8.44h4.35V25.38h9.87V8.44h4.34Z"/></g><g id="Tracciato_43" data-name="Tracciato 43"><path class="cls-1" d="M50.47,8A10.81,10.81,0,0,1,61.4,18.65h0V19A10.77,10.77,0,0,1,50.88,30h-.41A10.78,10.78,0,0,1,39.54,19.36V19A10.8,10.8,0,0,1,50.13,8ZM43.92,19a6.54,6.54,0,0,0,6.19,6.86h.36A6.51,6.51,0,0,0,57,19.39h0c0-.14,0-.27,0-.4a6.53,6.53,0,0,0-6.17-6.86h-.37a6.52,6.52,0,0,0-6.56,6.49c0,.12,0,.25,0,.37Z"/><path class="cls-2" d="M50.13,8h.47A10.81,10.81,0,0,1,61.4,18.66V19A10.77,10.77,0,0,1,50.88,30h-.57A10.78,10.78,0,0,1,39.54,19.36V19A10.81,10.81,0,0,1,50.13,8Zm.38,17.87A6.51,6.51,0,0,0,57,19.39h0c0-.13,0-.26,0-.39a6.53,6.53,0,0,0-6.18-6.86h-.4a6.53,6.53,0,0,0-6.52,6.49c0,.12,0,.25,0,.37h0a6.54,6.54,0,0,0,6.19,6.86h.4Z"/></g><g id="Tracciato_44" data-name="Tracciato 44"><path class="cls-1" d="M68.65,12.58v17H64.31V8.44h12v4.15Z"/><path class="cls-2" d="M64.31,8.44h12v4.14H68.65v17H64.31Z"/></g><g id="Tracciato_45" data-name="Tracciato 45"><path class="cls-1" d="M78.38,29.53V8.44h4.35V29.53Z"/><path class="cls-2" d="M82.73,29.53H78.38V8.44h4.35Z"/></g><g id="Tracciato_46" data-name="Tracciato 46"><path class="cls-1" d="M102.9,8.44h4.34V29.53H102.9V26a8.19,8.19,0,0,1-7.36,4,8.93,8.93,0,0,1-7-3.09A11.42,11.42,0,0,1,85.8,19a11.41,11.41,0,0,1,2.76-7.9A8.91,8.91,0,0,1,95.5,8a8.28,8.28,0,0,1,7.4,4.07Zm-6.44,17.4a6.15,6.15,0,0,0,4.64-1.92A6.79,6.79,0,0,0,102.94,19a6.84,6.84,0,0,0-1.84-4.93,6.12,6.12,0,0,0-4.64-1.93A5.9,5.9,0,0,0,91.93,14,7,7,0,0,0,90.17,19a7,7,0,0,0,1.76,4.95,5.9,5.9,0,0,0,4.53,1.92Z"/><path class="cls-2" d="M95.79,8a8.23,8.23,0,0,1,7.11,4.07V8.44h4.34V29.52H102.9V26a8.19,8.19,0,0,1-7,4H95.3a9,9,0,0,1-6.76-3.09A11.46,11.46,0,0,1,85.8,19a11.45,11.45,0,0,1,2.76-7.89A8.91,8.91,0,0,1,95.31,8h.48Zm.67,4.14h-.18A5.89,5.89,0,0,0,91.93,14,7,7,0,0,0,90.17,19a7,7,0,0,0,1.76,4.95,5.92,5.92,0,0,0,4.35,1.92h.18a6.15,6.15,0,0,0,4.64-1.92A6.79,6.79,0,0,0,102.94,19a6.82,6.82,0,0,0-1.84-4.93,6.12,6.12,0,0,0-4.47-1.94Z"/></g><g id="Tracciato_47" data-name="Tracciato 47"><path class="cls-1" d="M120.08,30a12,12,0,0,1-7-1.92,8,8,0,0,1-3.4-5.33h4.42a4.12,4.12,0,0,0,1.91,2.59,8.33,8.33,0,0,0,4.1.83,7.3,7.3,0,0,0,3.32-.64,2,2,0,0,0,1.21-1.78,1.58,1.58,0,0,0-.6-1.27,3.72,3.72,0,0,0-1.38-.72c-.52-.16-1.37-.37-2.55-.66l-1-.23a21.65,21.65,0,0,1-6.56-2.4,4.24,4.24,0,0,1-1.84-3.77,5.79,5.79,0,0,1,2.43-4.93A10.75,10.75,0,0,1,119.65,8a10.34,10.34,0,0,1,6.27,1.71,7.47,7.47,0,0,1,2.93,4.7h-4.37c-.61-1.72-2.25-2.57-4.91-2.57a6.81,6.81,0,0,0-3.26.65,2,2,0,0,0-1.19,1.76,1.46,1.46,0,0,0,1,1.4,25.79,25.79,0,0,0,4,1.17c1.33.31,2.38.57,3.16.79a19.08,19.08,0,0,1,2.44.86,6.58,6.58,0,0,1,1.92,1.15,4.91,4.91,0,0,1,1.08,1.51,5,5,0,0,1,.42,2.13,5.68,5.68,0,0,1-2.55,5A11.3,11.3,0,0,1,120.08,30Z"/><path class="cls-2" d="M120.53,30h-.45a12,12,0,0,1-7-1.92,7.91,7.91,0,0,1-3.39-5.33h4.41a4.1,4.1,0,0,0,1.92,2.59,8.27,8.27,0,0,0,4.09.83,7.3,7.3,0,0,0,3.32-.64,2,2,0,0,0,1.21-1.78,1.58,1.58,0,0,0-.6-1.27,3.72,3.72,0,0,0-1.38-.72c-.52-.16-1.37-.37-2.55-.66l-1-.23a21.9,21.9,0,0,1-6.56-2.39,4.27,4.27,0,0,1-1.84-3.78,5.79,5.79,0,0,1,2.43-4.93A10.75,10.75,0,0,1,119.65,8a10.34,10.34,0,0,1,6.27,1.71,7.47,7.47,0,0,1,2.93,4.69h-4.37q-.92-2.57-4.91-2.57a6.82,6.82,0,0,0-3.26.66,2,2,0,0,0-1.19,1.76,1.47,1.47,0,0,0,1,1.4,25.79,25.79,0,0,0,4,1.17c1.33.3,2.38.57,3.16.78a20.8,20.8,0,0,1,2.44.87,6.58,6.58,0,0,1,1.92,1.15,4.91,4.91,0,0,1,1.08,1.51,5,5,0,0,1,.42,2.13,5.68,5.68,0,0,1-2.55,5A11.29,11.29,0,0,1,120.53,30Z"/></g><g id="Tracciato_48" data-name="Tracciato 48"><path class="cls-1" d="M141,30a12,12,0,0,1-7-1.92,7.89,7.89,0,0,1-3.4-5.33H135a4.14,4.14,0,0,0,1.92,2.59,8.28,8.28,0,0,0,4.1.83,7.3,7.3,0,0,0,3.32-.64,2,2,0,0,0,1.2-1.78,1.6,1.6,0,0,0-.59-1.27,3.8,3.8,0,0,0-1.38-.72c-.53-.16-1.38-.37-2.55-.66l-1-.23a21.65,21.65,0,0,1-6.56-2.4,4.22,4.22,0,0,1-1.84-3.77,5.75,5.75,0,0,1,2.44-4.93A10.71,10.71,0,0,1,140.52,8a10.34,10.34,0,0,1,6.27,1.71,7.47,7.47,0,0,1,2.93,4.7h-4.37c-.61-1.72-2.25-2.57-4.91-2.57a6.81,6.81,0,0,0-3.26.65A2,2,0,0,0,136,14.23a1.46,1.46,0,0,0,1,1.4,25.79,25.79,0,0,0,4,1.17c1.33.31,2.39.57,3.16.79a19.08,19.08,0,0,1,2.44.86,6.58,6.58,0,0,1,1.92,1.15,4.76,4.76,0,0,1,1.5,3.64,5.68,5.68,0,0,1-2.55,5A11.32,11.32,0,0,1,141,30Z"/><path class="cls-2" d="M141.41,30H141a12,12,0,0,1-7-1.92,7.89,7.89,0,0,1-3.4-5.33H135a4.17,4.17,0,0,0,1.92,2.59,8.42,8.42,0,0,0,4.1.83,7.3,7.3,0,0,0,3.32-.64,1.94,1.94,0,0,0,1.2-1.78,1.6,1.6,0,0,0-.59-1.27,3.72,3.72,0,0,0-1.38-.72c-.53-.16-1.38-.37-2.55-.66l-1-.23a21.9,21.9,0,0,1-6.56-2.39,4.27,4.27,0,0,1-1.84-3.78,5.77,5.77,0,0,1,2.44-4.93A10.71,10.71,0,0,1,140.52,8a10.34,10.34,0,0,1,6.27,1.71,7.47,7.47,0,0,1,2.93,4.69h-4.37q-.91-2.57-4.91-2.57a6.82,6.82,0,0,0-3.26.66A2,2,0,0,0,136,14.23a1.47,1.47,0,0,0,1,1.4,25.79,25.79,0,0,0,4,1.17c1.33.3,2.39.57,3.16.78a20.8,20.8,0,0,1,2.44.87,6.58,6.58,0,0,1,1.92,1.15,4.91,4.91,0,0,1,1.08,1.51,5,5,0,0,1,.42,2.13,5.68,5.68,0,0,1-2.55,5A11.28,11.28,0,0,1,141.41,30Z"/></g><g id="Tracciato_49" data-name="Tracciato 49"><path class="cls-1" d="M162.69,8a10,10,0,0,1,8,3.47,11.82,11.82,0,0,1,2.67,8.72H156.21a6.51,6.51,0,0,0,2.07,4.43,6.59,6.59,0,0,0,4.53,1.59,7.08,7.08,0,0,0,3.41-.8,5.1,5.1,0,0,0,2.23-2.34h4.49A9.73,9.73,0,0,1,169,28.22,11.24,11.24,0,0,1,162.77,30a10.58,10.58,0,0,1-11-11,10.84,10.84,0,0,1,3.07-7.91A10.52,10.52,0,0,1,162.69,8Zm0,3.76a6.05,6.05,0,0,0-4,1.36,6.66,6.66,0,0,0-2.21,3.54h12.27a6.24,6.24,0,0,0-2.09-3.56A5.85,5.85,0,0,0,162.69,11.74Z"/><path class="cls-2" d="M163.11,8a10,10,0,0,1,7.58,3.48,11.78,11.78,0,0,1,2.66,8.72H156.21a6.47,6.47,0,0,0,2.07,4.43,6.59,6.59,0,0,0,4.53,1.59,7.11,7.11,0,0,0,3.41-.81,5,5,0,0,0,2.23-2.33h4.48A9.7,9.7,0,0,1,169,28.22,11.23,11.23,0,0,1,162.77,30h-.37a10.56,10.56,0,0,1-10.6-11,10.81,10.81,0,0,1,3.07-7.92A10.53,10.53,0,0,1,162.35,8h.76Zm-.42,3.77a6.05,6.05,0,0,0-4,1.36,6.66,6.66,0,0,0-2.21,3.54h12.27a6.24,6.24,0,0,0-2.09-3.56A5.85,5.85,0,0,0,162.69,11.74Z"/></g><g id="Rettangolo_27" data-name="Rettangolo 27"><rect class="cls-1" x="82.73" y="1.76" width="4.64" height="4.64"/><rect class="cls-3" x="84.48" y="3.51" width="1.14" height="1.14"/></g></g></g></g></svg>