<svg xmlns="http://www.w3.org/2000/svg" viewBox="0 0 144.51 25"><defs><style>.cls-1,.cls-3{fill:none;}.cls-2{fill:#fff;}.cls-3{stroke:#fff;stroke-miterlimit:10;stroke-width:3.5px;}</style></defs><g id="Livello_2" data-name="Livello 2"><g id="Livello_1-2" data-name="Livello 1"><g id="Logo_Desktop" data-name="Logo Desktop"><g id="Tracciato_41" data-name="Tracciato 41"><path class="cls-1" d="M3.06,12.13H0V8.73H3.06V0H13.12V3.41H6.68V8.72h6.44v3.41H6.68V24.6H3.06Z"/><path class="cls-2" d="M3.06,0H13.12V3.41H6.68V8.72h6.44v3.41H6.68V24.6H3.06V12.13H0V8.73H3.06Z"/></g><g id="Tracciato_42" data-name="Tracciato 42"><path class="cls-1" d="M15.08,24.6V7H18.7V21.15h8.22V7h3.62V24.61Z"/><path class="cls-2" d="M30.54,24.6H15.08V7H18.7V21.15h8.22V7h3.62Z"/></g><g id="Tracciato_43" data-name="Tracciato 43"><path class="cls-1" d="M42.06,6.65a9,9,0,0,1,9.1,8.9h0v.27A9,9,0,0,1,42.4,25h-.34A9,9,0,0,1,33,16.13v-.31a9,9,0,0,1,8.82-9.17ZM36.6,15.82a5.44,5.44,0,0,0,5.16,5.71h.3a5.43,5.43,0,0,0,5.46-5.39h0c0-.11,0-.22,0-.33a5.44,5.44,0,0,0-5.15-5.71h-.31a5.43,5.43,0,0,0-5.46,5.41c0,.1,0,.2,0,.31Z"/><path class="cls-2" d="M41.77,6.65h.39a9,9,0,0,1,9,8.9v.27A9,9,0,0,1,42.4,25h-.47a9,9,0,0,1-9-8.85v-.31A9,9,0,0,1,41.77,6.65Zm.32,14.89a5.43,5.43,0,0,0,5.43-5.39h0c0-.11,0-.22,0-.33a5.44,5.44,0,0,0-5.15-5.71H42a5.44,5.44,0,0,0-5.44,5.41c0,.1,0,.21,0,.31h0a5.44,5.44,0,0,0,5.16,5.71h.33Z"/></g><g id="Tracciato_44" data-name="Tracciato 44"><path class="cls-1" d="M57.21,10.49V24.6H53.59V7h10v3.45Z"/><path class="cls-2" d="M53.59,7h10v3.46H57.21V24.6H53.59Z"/></g><g id="Tracciato_45" data-name="Tracciato 45"><path class="cls-1" d="M65.32,24.6V7h3.62V24.61Z"/><path class="cls-2" d="M68.94,24.6H65.32V7h3.62Z"/></g><g id="Tracciato_46" data-name="Tracciato 46"><path class="cls-1" d="M85.75,7h3.62V24.61H85.75V21.67A6.81,6.81,0,0,1,79.62,25a7.46,7.46,0,0,1-5.84-2.57,9.57,9.57,0,0,1-2.28-6.6,9.56,9.56,0,0,1,2.3-6.58,7.39,7.39,0,0,1,5.78-2.58,6.87,6.87,0,0,1,6.17,3.39Zm-5.37,14.5a5.13,5.13,0,0,0,3.87-1.6,5.73,5.73,0,0,0,1.54-4.12,5.73,5.73,0,0,0-1.54-4.11,5.1,5.1,0,0,0-3.87-1.61,4.86,4.86,0,0,0-3.77,1.6,5.83,5.83,0,0,0-1.47,4.12,5.83,5.83,0,0,0,1.47,4.12,4.9,4.9,0,0,0,3.77,1.6Z"/><path class="cls-2" d="M79.83,6.65A6.86,6.86,0,0,1,85.75,10V7h3.62V24.6H85.75V21.66A6.81,6.81,0,0,1,79.89,25h-.47a7.45,7.45,0,0,1-5.63-2.57,9.55,9.55,0,0,1-2.29-6.6,9.52,9.52,0,0,1,2.3-6.58,7.44,7.44,0,0,1,5.63-2.59h.4Zm.55,3.45h-.15a4.87,4.87,0,0,0-3.62,1.6,5.81,5.81,0,0,0-1.47,4.12,5.83,5.83,0,0,0,1.47,4.12,4.91,4.91,0,0,0,3.62,1.6h.15a5.16,5.16,0,0,0,3.87-1.6,5.73,5.73,0,0,0,1.54-4.12,5.73,5.73,0,0,0-1.54-4.11,5.12,5.12,0,0,0-3.73-1.61Z"/></g><g id="Tracciato_47" data-name="Tracciato 47"><path class="cls-1" d="M100.07,25a9.93,9.93,0,0,1-5.8-1.6A6.56,6.56,0,0,1,91.44,19h3.67a3.47,3.47,0,0,0,1.6,2.16,7,7,0,0,0,3.42.69,6.08,6.08,0,0,0,2.76-.53,1.62,1.62,0,0,0,1-1.49,1.3,1.3,0,0,0-.5-1.05,3.19,3.19,0,0,0-1.15-.61c-.44-.13-1.14-.31-2.13-.54l-.83-.19a18.45,18.45,0,0,1-5.47-2,3.57,3.57,0,0,1-1.53-3.15,4.79,4.79,0,0,1,2-4.1,8.89,8.89,0,0,1,5.39-1.49,8.63,8.63,0,0,1,5.22,1.42A6.27,6.27,0,0,1,107.38,12h-3.65Q103,9.85,99.64,9.85a5.63,5.63,0,0,0-2.71.54,1.63,1.63,0,0,0-1,1.47,1.22,1.22,0,0,0,.8,1.17,21.74,21.74,0,0,0,3.35,1c1.11.26,2,.47,2.64.66a16.27,16.27,0,0,1,2,.71,5.68,5.68,0,0,1,1.6,1,4,4,0,0,1,1.25,3,4.77,4.77,0,0,1-2.13,4.17A9.39,9.39,0,0,1,100.07,25Z"/><path class="cls-2" d="M100.44,25h-.37a9.93,9.93,0,0,1-5.8-1.6A6.56,6.56,0,0,1,91.44,19h3.67a3.47,3.47,0,0,0,1.6,2.16,7,7,0,0,0,3.42.69,6.08,6.08,0,0,0,2.76-.53,1.62,1.62,0,0,0,1-1.49,1.3,1.3,0,0,0-.5-1.05,3.19,3.19,0,0,0-1.15-.61q-.66-.2-2.13-.54l-.83-.19a18.45,18.45,0,0,1-5.47-2,3.57,3.57,0,0,1-1.53-3.15,4.79,4.79,0,0,1,2-4.1,9,9,0,0,1,5.39-1.49,8.63,8.63,0,0,1,5.22,1.42A6.27,6.27,0,0,1,107.38,12h-3.65Q103,9.85,99.64,9.84a5.76,5.76,0,0,0-2.71.55,1.63,1.63,0,0,0-1,1.47,1.2,1.2,0,0,0,.8,1.16,21.77,21.77,0,0,0,3.35,1c1.11.25,2,.47,2.64.65a18.12,18.12,0,0,1,2,.72,5.68,5.68,0,0,1,1.6,1,4,4,0,0,1,1.25,3,4.76,4.76,0,0,1-2.13,4.16A9.4,9.4,0,0,1,100.44,25Z"/></g><g id="Tracciato_48" data-name="Tracciato 48"><path class="cls-1" d="M117.45,25a9.9,9.9,0,0,1-5.79-1.6A6.61,6.61,0,0,1,108.82,19h3.68a3.47,3.47,0,0,0,1.6,2.16,7,7,0,0,0,3.41.69,6.12,6.12,0,0,0,2.77-.53,1.65,1.65,0,0,0,1-1.49,1.33,1.33,0,0,0-.5-1.05,3.19,3.19,0,0,0-1.15-.61q-.66-.2-2.13-.54l-.83-.19a18.39,18.39,0,0,1-5.46-2,3.55,3.55,0,0,1-1.54-3.15,4.79,4.79,0,0,1,2-4.1,9,9,0,0,1,5.39-1.49,8.61,8.61,0,0,1,5.22,1.42A6.27,6.27,0,0,1,124.77,12h-3.65q-.77-2.14-4.09-2.14a5.63,5.63,0,0,0-2.71.54,1.63,1.63,0,0,0-1,1.47,1.22,1.22,0,0,0,.8,1.17,21.74,21.74,0,0,0,3.35,1c1.11.26,2,.47,2.64.66a16.27,16.27,0,0,1,2,.71,5.68,5.68,0,0,1,1.6,1,4,4,0,0,1,1.25,3,4.76,4.76,0,0,1-2.13,4.17A9.4,9.4,0,0,1,117.45,25Z"/><path class="cls-2" d="M117.84,25h-.39a9.9,9.9,0,0,1-5.79-1.6A6.61,6.61,0,0,1,108.82,19h3.68a3.47,3.47,0,0,0,1.6,2.16,7,7,0,0,0,3.42.69,6.1,6.1,0,0,0,2.76-.53,1.64,1.64,0,0,0,1-1.49,1.33,1.33,0,0,0-.5-1.05,3.19,3.19,0,0,0-1.15-.61c-.44-.13-1.15-.31-2.12-.54l-.84-.19a18.39,18.39,0,0,1-5.46-2,3.55,3.55,0,0,1-1.54-3.15,4.81,4.81,0,0,1,2-4.1,9,9,0,0,1,5.39-1.49,8.61,8.61,0,0,1,5.22,1.42A6.27,6.27,0,0,1,124.77,12h-3.65q-.77-2.14-4.09-2.15a5.76,5.76,0,0,0-2.71.55,1.63,1.63,0,0,0-1,1.47,1.2,1.2,0,0,0,.8,1.16,21.77,21.77,0,0,0,3.35,1c1.11.25,2,.47,2.64.65a18.12,18.12,0,0,1,2,.72,5.68,5.68,0,0,1,1.6,1,4.15,4.15,0,0,1,.9,1.26,4.35,4.35,0,0,1,.35,1.78,4.73,4.73,0,0,1-2.13,4.16A9.34,9.34,0,0,1,117.84,25Z"/></g><g id="Tracciato_49" data-name="Tracciato 49"><path class="cls-1" d="M135.58,6.65a8.32,8.32,0,0,1,6.66,2.89,9.79,9.79,0,0,1,2.22,7.27H130.18a5.41,5.41,0,0,0,1.72,3.69,5.49,5.49,0,0,0,3.77,1.32,6,6,0,0,0,2.85-.66,4.26,4.26,0,0,0,1.85-1.95h3.74a8.07,8.07,0,0,1-3.26,4.31A9.39,9.39,0,0,1,135.64,25a8.81,8.81,0,0,1-9.14-9.14,9,9,0,0,1,2.56-6.59A8.75,8.75,0,0,1,135.58,6.65Zm0,3.13a5.07,5.07,0,0,0-3.37,1.13,5.54,5.54,0,0,0-1.84,3h10.22a5.24,5.24,0,0,0-1.74-3A4.88,4.88,0,0,0,135.58,9.78Z"/><path class="cls-2" d="M135.93,6.64a8.33,8.33,0,0,1,6.31,2.9,9.88,9.88,0,0,1,2.22,7.27H130.18a5.33,5.33,0,0,0,1.72,3.69,5.48,5.48,0,0,0,3.77,1.32,5.89,5.89,0,0,0,2.85-.67,4.21,4.21,0,0,0,1.85-1.95h3.74a8.13,8.13,0,0,1-3.26,4.32A9.41,9.41,0,0,1,135.64,25h-.3a8.8,8.8,0,0,1-8.84-9.14,9,9,0,0,1,2.56-6.6,8.75,8.75,0,0,1,6.23-2.6h.64Zm-.35,3.14a5.07,5.07,0,0,0-3.37,1.13,5.54,5.54,0,0,0-1.84,3h10.22a5.24,5.24,0,0,0-1.74-3A4.88,4.88,0,0,0,135.58,9.78Z"/></g><g id="Rettangolo_27" data-name="Rettangolo 27"><rect class="cls-1" x="68.94" y="1.46" width="3.87" height="3.87"/><rect class="cls-3" x="70.4" y="2.92" width="0.95" height="0.95"/></g></g></g></g></svg>