<svg id="Raggruppa_188" data-name="Raggruppa 188" xmlns="http://www.w3.org/2000/svg" width="240" height="60" viewBox="0 0 240 60">
    <g id="Tracciato_524" data-name="Tracciato 524" transform="translate(-8499.455 -1488.718)" fill="none" stroke-miterlimit="10">
        <path d="M8739.455,1518.715l-5.923,18.543-15.494,11.459H8520.866l-15.494-11.459-5.917-18.543,5.917-18.543,15.494-11.455h197.172l15.494,11.455Z" stroke="none"/>
        <path d="M 8521.8544921875 1491.7177734375 L 8507.935546875 1502.008178710938 L 8502.6044921875 1518.715454101562 L 8507.935546875 1535.422973632812 L 8521.85546875 1545.7177734375 L 8717.048828125 1545.7177734375 L 8730.9697265625 1535.422607421875 L 8736.3056640625 1518.715454101562 L 8730.9697265625 1502.008422851562 L 8717.0498046875 1491.7177734375 L 8521.8544921875 1491.7177734375 M 8520.8662109375 1488.7177734375 L 8718.0380859375 1488.7177734375 L 8733.5322265625 1500.17236328125 L 8739.455078125 1518.715454101562 L 8733.5322265625 1537.258422851562 L 8718.0380859375 1548.7177734375 L 8520.8662109375 1548.7177734375 L 8505.3720703125 1537.258544921875 L 8499.455078125 1518.715454101562 L 8505.3720703125 1500.17236328125 L 8520.8662109375 1488.7177734375 Z" stroke="none" fill="#1c0e3f"/>
    </g>
    <text id="of_course" data-name="of course" transform="translate(120 39)" fill="#1c0e3f" font-size="26" font-family="Stolzl-Regular, Stolzl" letter-spacing="-0.02em"><tspan x="-63.271" y="0">of course</tspan></text>
</svg>
